# xmcd CD database file
# Copyright (C) 1993-1996 Ti Kan
#
# Track frame offsets:
#	182
#	10035
#	20867
#	31822
#	42400
#	53077
#	65287
#	77547
#	92687
#	102342
#	114965
#	126432
#	139590
#	151957
#	163840
#	175057
#	186292
#	198397
#	209627
#	222670
#	235940
#	245562
#	256777
#	268345
#
# Disc length: 3745 seconds
#
# Revision: 1
# Processed by: cddbd v1.4b41PL1 Copyright (c) Steve Scherf et al.
# Submitted via: CDValet v3.01 - Copyright (c) 1997 Greg Leichner
#
DISCID=570e9f18
DTITLE=Howlin' Wolf - Rockin' Chair Album
DYEAR=1900
DGENRE=
TTITLE0=Shake For Me
TTITLE1=Red Rooster
TTITLE2=You'll Be Mine
TTITLE3=Who's Been Talkin'
TTITLE4=Wang Dang Doodle
TTITLE5=Little Baby
TTITLE6=Spoonful
TTITLE7=Going Down Slow
TTITLE8=Down In The Bottom
TTITLE9=Back Door Man
TTITLE10=Howlin' For My Baby
TTITLE11=Tell Me
TTITLE12=Killing Floor
TTITLE13=Louise
TTITLE14=Poor Boy
TTITLE15=Sittin' On Top Of The World
TTITLE16=Nature
TTITLE17=My Country Sugar Mama
TTITLE18=Tail Dragger
TTITLE19=Three Hundred Pounds Of Joy
TTITLE20=Natchez Burnin'
TTITLE21=Built For Comfort
TTITLE22=Ooh Baby Hold Me
TTITLE23=Tell Me What I've Done
EXTD=
EXTT0=
EXTT1=
EXTT2=
EXTT3=
EXTT4=
EXTT5=
EXTT6=
EXTT7=
EXTT8=
EXTT9=
EXTT10=
EXTT11=
EXTT12=
EXTT13=
EXTT14=
EXTT15=
EXTT16=
EXTT17=
EXTT18=
EXTT19=
EXTT20=
EXTT21=
EXTT22=
EXTT23=
PLAYORDER=
